<svg xmlns="http://www.w3.org/2000/svg" width="196" height="196" fill="none" viewBox="0 0 196 196">
  <path fill="#fff" d="M26.971 174.888a.968.968 0 0 1-.714-.287.886.886 0 0 1-.254-.703l2.238-21.199a.8.8 0 0 1 .302-.559c.19-.16.407-.24.65-.24h5.508a.94.94 0 0 1 .714.304c.19.191.27.42.238.686l-1.698 16.215h17.633a.72.72 0 0 1 .57.256c.149.16.207.351.175.575l-.444 4.265a.775.775 0 0 1-.254.495.735.735 0 0 1-.492.192H26.971Zm27.491.096c-.36 0-.609-.17-.746-.511-.138-.341-.048-.66.27-.959l17.617-21.135a1.83 1.83 0 0 1 .476-.351c.169-.085.37-.128.603-.128h4.888c.222 0 .413.048.571.144.16.096.302.223.429.383l13.284 21.151c.265.309.323.623.175.943-.148.309-.402.463-.762.463h-6.174a.904.904 0 0 1-.413-.096 1.428 1.428 0 0 1-.301-.255l-9.03-14.506-.842-1.374h-.048L61.413 174.68a.997.997 0 0 1-.301.208.778.778 0 0 1-.381.096h-6.27Zm7.046-4.297 2.556-4.282h19.315l1.746 4.282H61.508ZM96.547 175a.996.996 0 0 1-.714-.272.836.836 0 0 1-.239-.718l2.207-21.072a.942.942 0 0 1 .349-.655c.222-.181.476-.271.762-.271h23.965c.222 0 .402.08.54.239.148.15.211.331.19.544l-.428 4.089a.711.711 0 0 1-.254.464.683.683 0 0 1-.476.191h-17.681l-1.762 16.662a.834.834 0 0 1-.317.575.966.966 0 0 1-.635.224h-5.507Zm2.904-7.572.572-5.416h20.283c.212 0 .386.08.524.24a.67.67 0 0 1 .174.543l-.428 4.01a.655.655 0 0 1-.222.447.717.717 0 0 1-.477.176H99.451ZM126.15 175a.986.986 0 0 1-.73-.288.836.836 0 0 1-.222-.702l2.238-21.311a.842.842 0 0 1 .301-.559.986.986 0 0 1 .651-.24h5.507a.89.89 0 0 1 .699.304c.19.191.275.42.254.686l-2.254 21.295a.854.854 0 0 1-.302.575.943.943 0 0 1-.65.24h-5.492Zm22.848 0a.965.965 0 0 1-.714-.288.837.837 0 0 1-.238-.702l2.016-19.234h7.443l-2.047 19.409a.832.832 0 0 1-.318.575.962.962 0 0 1-.635.24h-5.507Zm-10.141-17.205a.744.744 0 0 1-.572-.24.708.708 0 0 1-.174-.591l.444-4.265a.718.718 0 0 1 .254-.48.706.706 0 0 1 .492-.207h29.346c.232 0 .423.085.571.255.148.16.212.352.191.576l-.445 4.265a.775.775 0 0 1-.254.495.754.754 0 0 1-.508.192h-29.345Z"/>
  <path fill="url(#a)" d="M106.828 103.307c0-4.163-2.883-7.857-6.93-8.946-5.444-1.494-9.64 3.053-13.858 5.551-5.144 3.032-10.524 5.573-16.356 6.939-5.165 1.217-12.46 1.943-16.227-2.69-6.284-7.729 2.97-25.47 20.66-39.626a88.216 88.216 0 0 1 7.252-5.23c1.808-1.175 2.153-3.844.732-5.445-1.313-1.473-3.615-1.366-5.122-.256-4.433 3.352-8.63 7.067-12.632 10.91-3.723 3.587-7.253 7.344-10.546 11.315-2.97 3.587-5.746 7.345-8.22 11.295-2.174 3.458-4.133 7.045-5.704 10.803-1.334 3.181-2.388 6.49-2.926 9.885-.452 2.818-.538 5.722.064 8.54.495 2.306 1.464 4.483 2.949 6.32 5.25 6.469 14.827 6.725 22.446 5.636 12.245-1.772 23.307-7.28 34.002-13.173 4.627-2.562 10.438-5.893 10.438-11.849l-.022.021Z"/>
  <path fill="url(#b)" d="M87.6 46.83c0 4.215 2.885 7.954 6.932 9.056 5.446 1.513 9.644-3.09 13.863-5.62 5.145-3.069 10.527-5.64 16.361-7.024 5.167-1.232 12.464-1.967 16.232 2.723 6.286 7.825-2.971 25.786-20.666 40.117a88.482 88.482 0 0 1-7.255 5.295c-1.808 1.189-2.153 3.89-.732 5.512 1.313 1.491 3.616 1.383 5.123.26 4.435-3.394 8.633-7.155 12.637-11.046 3.724-3.631 7.255-7.435 10.548-11.456 2.971-3.63 5.748-7.435 8.224-11.434 2.174-3.501 4.133-7.132 5.704-10.936 1.335-3.221 2.39-6.571 2.928-10.008.452-2.853.538-5.792-.064-8.646-.496-2.334-1.464-4.539-2.95-6.397-5.252-6.571-14.832-6.83-22.431-5.728-12.249 1.794-23.314 7.37-34.013 13.336C93.412 37.427 87.6 40.799 87.6 46.83Z"/>
  <defs>
    <linearGradient id="a" x1="151.904" x2="44.022" y1="25.892" y2="129.828" gradientUnits="userSpaceOnUse">
      <stop stop-color="#fff" stop-opacity="0"/>
      <stop offset="1" stop-color="#fff"/>
    </linearGradient>
    <linearGradient id="b" x1="36.474" x2="168.915" y1="125.851" y2="21.342" gradientUnits="userSpaceOnUse">
      <stop stop-color="#fff" stop-opacity="0"/>
      <stop offset="1" stop-color="#fff"/>
    </linearGradient>
  </defs>
</svg>
