<svg xmlns="http://www.w3.org/2000/svg" width="157" height="150" fill="none" viewBox="0 0 157 150">
  <rect width="116" height="13.243" x="29" y="136.757" fill="url(#a)" rx="6.622"/>
  <path fill="url(#b)" d="M116.042 90.692a24.835 24.835 0 0 0-3.768.384l2.704 4.681a19.972 19.972 0 0 1 1.703-.073c10.896 0 19.73 8.834 19.73 19.731 0 10.896-8.834 19.73-19.73 19.73-10.897 0-19.73-8.834-19.73-19.73 0-3.931 1.149-7.593 3.13-10.669h-5.716a24.631 24.631 0 0 0-2.415 10.669l.008.637c.338 13.364 11.278 24.093 24.723 24.093l.638-.009c13.151-.333 23.751-10.933 24.084-24.084l.008-.637c0-13.659-11.072-24.73-24.73-24.73l-.639.007Zm-62.95 0C39.729 91.031 29 101.97 29 115.415l.008.637c.338 13.364 11.278 24.093 24.723 24.093l.638-.009c13.151-.333 23.751-10.933 24.084-24.084l.008-.637c0-13.659-11.072-24.73-24.73-24.73l-.64.007Zm.639 4.992c10.896 0 19.73 8.834 19.73 19.731 0 10.896-8.834 19.73-19.73 19.73-10.897 0-19.73-8.834-19.731-19.73 0-10.897 8.834-19.73 19.73-19.73Z"/>
  <path fill="#F26F6F" d="M77.899 56.035a2.81 2.81 0 0 0-2.81-2.81H52.043a2.81 2.81 0 1 0 0 5.62h23.044a2.81 2.81 0 0 0 2.81-2.81Z"/>
  <path fill="#F26F6F" d="M76.59 54.067a2.81 2.81 0 0 0-3.84 1.029l-23.562 40.81a2.81 2.81 0 0 0 4.868 2.81l23.562-40.81a2.81 2.81 0 0 0-1.029-3.839Z"/>
  <path fill="#F26F6F" fill-rule="evenodd" d="M66.032 69.516c-2.055.122-3.31 2.385-2.257 4.21l18.713 32.411a2.786 2.786 0 0 0 2.561 1.401l.006.001.2.006h36.994c2.163 0 3.515-2.341 2.434-4.215l-18.497-32.037a2.78 2.78 0 0 0-2.25-1.4 2.894 2.894 0 0 0-.501-.049l-37.201-.334-.201.006Zm51.349 32.409H90.123l13.629-23.607 13.629 23.607Zm-18.81-26.503L84.92 99.108 71.1 75.175l27.47.247Z" clip-rule="evenodd"/>
  <rect width="13" height="9" x="45" y="52" fill="#757575" rx="2"/>
  <g filter="url(#c)">
    <rect width="27" height="2.803" x="71.02" y="71" fill="url(#d)" rx="1.401" transform="rotate(.405 71.02 71)"/>
  </g>
  <circle cx="26" cy="26" r="26" fill="#FFEB84" fill-opacity=".5"/>
  <circle cx="26" cy="26" r="15.965" fill="#FFCB3B"/>
  <rect width="54" height="22" x="78" y="20" fill="url(#e)" rx="11"/>
  <rect width="32" height="13" x="125" y="48" fill="url(#f)" rx="6.5"/>
  <defs>
    <linearGradient id="a" x1="145" x2="56.295" y1="143.378" y2="142.84" gradientUnits="userSpaceOnUse">
      <stop stop-color="#fff" stop-opacity="0"/>
      <stop offset="1" stop-color="#5DB3F9"/>
    </linearGradient>
    <linearGradient id="b" x1="85.206" x2="85.206" y1="140.145" y2="90.684" gradientUnits="userSpaceOnUse">
      <stop stop-color="#8E8E93"/>
      <stop offset="1" stop-color="#636363"/>
    </linearGradient>
    <linearGradient id="d" x1="98.02" x2="71.02" y1="72.401" y2="72.401" gradientUnits="userSpaceOnUse">
      <stop stop-color="#fff" stop-opacity="0"/>
      <stop offset="1" stop-color="#fff"/>
    </linearGradient>
    <linearGradient id="e" x1="105" x2="105" y1="20" y2="42" gradientUnits="userSpaceOnUse">
      <stop stop-color="#E1F1FE"/>
      <stop offset="1" stop-color="#fff"/>
    </linearGradient>
    <linearGradient id="f" x1="141" x2="141" y1="48" y2="61" gradientUnits="userSpaceOnUse">
      <stop stop-color="#E1F1FE"/>
      <stop offset="1" stop-color="#fff"/>
    </linearGradient>
    <filter id="c" width="28.999" height="4.974" x="70.01" y="70.01" color-interpolation-filters="sRGB" filterUnits="userSpaceOnUse">
      <feFlood flood-opacity="0" result="BackgroundImageFix"/>
      <feBlend in="SourceGraphic" in2="BackgroundImageFix" result="shape"/>
      <feTurbulence baseFrequency="10 10" numOctaves="3" seed="3231" type="fractalNoise"/>
      <feDisplacementMap width="100%" height="100%" in="shape" result="displacedImage" scale="2" xChannelSelector="R" yChannelSelector="G"/>
      <feMerge result="effect1_texture_647_1240">
        <feMergeNode in="displacedImage"/>
      </feMerge>
    </filter>
  </defs>
</svg>
