<svg xmlns="http://www.w3.org/2000/svg" width="116" height="111" fill="none" viewBox="0 0 116 111">
  <rect width="116" height="15" y="96" fill="url(#a)" rx="7.5"/>
  <path fill="url(#b)" d="M87.042 51.692c-1.282.032-2.54.163-3.768.384l2.704 4.681c.56-.048 1.129-.073 1.703-.073 10.897 0 19.73 8.834 19.73 19.73 0 10.897-8.834 19.731-19.73 19.731-10.897 0-19.73-8.834-19.73-19.73 0-3.931 1.149-7.593 3.13-10.67h-5.716a24.633 24.633 0 0 0-2.415 10.67l.008.637c.338 13.364 11.278 24.093 24.723 24.093l.638-.009c13.151-.333 23.751-10.933 24.084-24.084l.008-.637c0-13.659-11.072-24.73-24.73-24.73l-.639.007Zm-62.95 0C10.729 52.031 0 62.97 0 76.415l.008.637c.338 13.364 11.278 24.093 24.723 24.093l.638-.009c13.151-.333 23.751-10.933 24.084-24.084l.008-.637c0-13.659-11.072-24.73-24.73-24.73l-.64.007Zm.639 4.992c10.896 0 19.73 8.834 19.73 19.73 0 10.897-8.834 19.731-19.73 19.731C13.833 96.145 5 87.311 5 76.415c0-10.897 8.834-19.73 19.73-19.73Z"/>
  <path fill="#28CC9E" d="M48.899 17.035a2.81 2.81 0 0 0-2.81-2.81H23.043a2.81 2.81 0 1 0 0 5.62h23.044a2.81 2.81 0 0 0 2.81-2.81Z"/>
  <path fill="#28CC9E" d="M47.59 15.067a2.81 2.81 0 0 0-3.84 1.029l-23.562 40.81a2.81 2.81 0 0 0 4.868 2.81l23.562-40.81a2.81 2.81 0 0 0-1.029-3.839Z"/>
  <path fill="#28CC9E" fill-rule="evenodd" d="M37.032 30.516c-2.055.122-3.31 2.385-2.257 4.21l18.713 32.411a2.786 2.786 0 0 0 2.561 1.4l.006.002.2.007H93.25c2.163 0 3.515-2.343 2.434-4.216L77.186 32.293a2.78 2.78 0 0 0-2.25-1.4 2.89 2.89 0 0 0-.5-.049l-37.202-.334-.202.006Zm51.35 32.409h-27.26l13.63-23.607 13.63 23.607Zm-18.81-26.503L55.918 60.108 42.102 36.175l27.47.247Z" clip-rule="evenodd"/>
  <rect width="13" height="9" x="16" y="13" fill="#757575" rx="2"/>
  <g filter="url(#c)">
    <rect width="27" height="2.803" x="42.02" y="32" fill="url(#d)" rx="1.401" transform="rotate(.405 42.02 32)"/>
  </g>
  <defs>
    <linearGradient id="a" x1="116" x2="27.294" y1="103.5" y2="103.025" gradientUnits="userSpaceOnUse">
      <stop stop-color="#fff" stop-opacity="0"/>
      <stop offset="1" stop-color="#5DB3F9"/>
    </linearGradient>
    <linearGradient id="b" x1="56.206" x2="56.206" y1="101.145" y2="51.684" gradientUnits="userSpaceOnUse">
      <stop stop-color="#8E8E93"/>
      <stop offset="1" stop-color="#636363"/>
    </linearGradient>
    <linearGradient id="d" x1="69.02" x2="42.02" y1="33.401" y2="33.401" gradientUnits="userSpaceOnUse">
      <stop stop-color="#fff" stop-opacity="0"/>
      <stop offset="1" stop-color="#fff"/>
    </linearGradient>
    <filter id="c" width="28.999" height="4.974" x="41.01" y="31.01" color-interpolation-filters="sRGB" filterUnits="userSpaceOnUse">
      <feFlood flood-opacity="0" result="BackgroundImageFix"/>
      <feBlend in="SourceGraphic" in2="BackgroundImageFix" result="shape"/>
      <feTurbulence baseFrequency="10 10" numOctaves="3" seed="3231" type="fractalNoise"/>
      <feDisplacementMap width="100%" height="100%" in="shape" result="displacedImage" scale="2" xChannelSelector="R" yChannelSelector="G"/>
      <feMerge result="effect1_texture_647_1194">
        <feMergeNode in="displacedImage"/>
      </feMerge>
    </filter>
  </defs>
</svg>
